<svg width="64" height="64" viewBox="0 0 64 64" fill="none" xmlns="http://www.w3.org/2000/svg">
<path d="M60.5051 51.4012C57.7313 54.116 54.0998 55.4592 50.4968 55.4592C46.7794 55.4592 43.0621 54.0017 40.2598 51.0297C37.8578 48.572 36.3994 45.3141 36.1993 41.8848C35.9991 38.4841 36.9999 35.112 39.0302 32.3971L39.063 32.3577C39.212 32.1785 39.4739 31.8638 40.031 31.254C41.2034 29.9394 43.4052 27.4532 44.0915 26.2815C45.6356 23.6238 46.4935 20.6517 46.4935 17.9655C46.4935 16.0793 46.0646 14.279 45.2639 12.5643C45.1495 12.2785 45.0923 11.9927 45.1209 11.6784C45.1769 11.0912 45.9171 8.26089 46.5651 5.78355L46.6079 5.61996C44.1201 6.16293 41.2034 6.73448 40.4885 6.76306C40.174 6.76306 39.8594 6.67733 39.6021 6.53444C37.3145 5.21987 34.6837 4.53401 31.9958 4.53401C24.0178 4.53401 17.5267 10.5639 17.5267 17.994C17.5267 20.6803 18.3845 23.6524 19.9287 26.3101C20.5864 27.4818 22.7882 29.968 23.9606 31.2826L24.2358 31.5965C24.6445 32.0622 24.8425 32.2879 24.9614 32.4543C26.9631 35.1691 27.9639 38.5413 27.7637 41.942C27.5636 45.3713 26.1052 48.6291 23.7032 51.0868C21.0153 53.8302 17.4123 55.3734 13.5806 55.402C9.74885 55.4592 6.11729 54.0017 3.37216 51.3154C3.34358 51.2583 3.31497 51.2297 3.28639 51.2011L3.25778 51.144C0.0551298 47.6861 -0.888521 42.5993 0.884372 38.1983C1.8566 35.7978 3.7153 33.9117 6.11728 32.8829C8.51926 31.8827 11.1786 31.8541 13.5806 32.8258C17.5839 34.4547 19.4998 38.9985 17.8984 42.9994C17.5553 43.8567 16.5831 44.2568 15.7252 43.9138C14.8674 43.5423 14.467 42.5993 14.8102 41.742C15.7252 39.4272 14.61 36.798 12.3224 35.8836C10.7211 35.2549 8.97679 35.2834 7.40406 35.9407C5.80273 36.6266 4.57315 37.8554 3.94406 39.4558C2.62869 42.685 3.31497 46.4001 5.68835 48.9435L5.71694 49.0006V49.0292C7.83298 51.0868 10.6067 52.1728 13.5234 52.1442C16.4687 52.1156 19.2424 50.9439 21.3012 48.8292C25.133 44.9141 25.5333 38.8842 22.2735 34.5118C22.1877 34.4261 21.7874 33.9689 21.4442 33.5688C19.6141 31.5398 17.7841 29.425 17.012 28.0819C15.1819 24.9384 14.1525 21.3662 14.1525 18.1083C14.1525 8.84922 22.1305 1.33333 31.9386 1.33333C35.0269 1.33333 38.058 2.07634 40.7173 3.50522C41.9469 3.30518 45.4069 2.59074 48.4951 1.93345C49.0384 1.81914 49.6389 1.99061 50.0393 2.41928C50.4396 2.84794 50.5826 3.41949 50.4396 3.99104C49.6104 7.10599 48.7239 10.5639 48.438 11.7927C49.3244 13.7931 49.7533 15.9079 49.7533 18.1083C49.7533 21.3662 48.7525 24.9098 46.8938 28.0819C46.1217 29.425 44.2631 31.5398 42.433 33.5974C42.2646 33.7937 42.0825 33.9968 41.9305 34.1664C41.7728 34.3423 41.6474 34.4822 41.6037 34.5404C38.4011 38.827 38.8014 44.9998 42.576 48.8578C46.8366 53.2015 53.8424 53.2873 58.1889 49.0292L58.246 48.9721C60.648 46.4287 61.3343 42.7136 60.0475 39.5129C58.7036 36.2265 54.9576 34.6547 51.6692 35.9693C49.3816 36.9123 48.2664 39.5415 49.1814 41.8277C49.5246 42.6564 49.1242 43.6281 48.2664 43.971C47.4085 44.3139 46.4363 43.9138 46.0931 43.0565C44.4632 39.0557 46.4077 34.4833 50.411 32.8829C52.8416 31.9113 55.4723 31.9113 57.8743 32.9401C60.2763 33.9403 62.135 35.855 63.1072 38.2555C64.9087 42.685 63.9365 47.8004 60.6194 51.2868L60.5051 51.4012Z" fill="#00A4FF"/>
<path d="M27.3347 23.2809C27.3347 24.1097 26.6771 24.767 25.8478 24.767C25.0185 24.767 24.3608 24.1097 24.3608 23.2809C24.3608 22.4522 25.0185 21.7949 25.8478 21.7949C26.6771 21.7949 27.3347 22.4808 27.3347 23.2809Z" fill="#00A4FF"/>
<path d="M39.3733 23.2809C39.3733 22.4522 38.7156 21.7949 37.8864 21.7949C37.0571 21.7949 36.3994 22.4522 36.3994 23.2809C36.3994 24.1097 37.0571 24.767 37.8864 24.767C38.7156 24.767 39.3733 24.1097 39.3733 23.2809Z" fill="#00A4FF"/>
<path d="M32.2246 30.9397C34.4264 30.9397 35.3414 30.0538 35.3414 29.568C35.3414 29.0536 34.9411 28.9679 34.455 28.9679H29.3365C28.8218 28.9679 28.4214 29.0536 28.4214 29.568C28.4214 30.0824 29.3937 30.9397 31.5383 30.9397H32.2246Z" fill="#00A4FF"/>
<path d="M48.7525 61.089C48.7525 62.0035 48.009 62.7465 47.094 62.7465C43.5196 62.7465 39.4305 61.2033 36.1135 58.6028C34.312 57.1739 32.8822 55.5735 31.91 53.8589C30.9378 55.5735 29.508 57.1739 27.7065 58.6028C24.3895 61.2033 20.3004 62.7465 16.726 62.7465C15.811 62.7465 15.0675 62.0035 15.0675 61.089C15.0675 60.1745 15.811 59.4315 16.726 59.4315C19.5283 59.4315 22.9311 58.0884 25.6477 55.9736C27.3634 54.6305 30.2229 51.8013 30.2229 48.0005C30.2229 47.086 30.9664 46.343 31.8814 46.343H31.9386C32.8536 46.343 33.5971 47.086 33.5971 48.0005C33.5971 51.8013 36.4566 54.6305 38.1723 55.9736C40.8602 58.1169 44.2916 59.4315 47.094 59.4315C48.009 59.4315 48.7525 60.1745 48.7525 61.089Z" fill="#00A4FF"/>
</svg>
